<svg width="27" height="27" viewBox="0 0 27 27" fill="none" xmlns="http://www.w3.org/2000/svg">
<rect width="27" height="27" rx="13.5" fill="#ABB2BF"/>
<path d="M19.0416 8.95825H19.0508M9.41659 4.83325H18.5833C21.1146 4.83325 23.1666 6.88528 23.1666 9.41659V18.5833C23.1666 21.1146 21.1146 23.1666 18.5833 23.1666H9.41659C6.88528 23.1666 4.83325 21.1146 4.83325 18.5833V9.41659C4.83325 6.88528 6.88528 4.83325 9.41659 4.83325ZM17.6666 13.4224C17.7797 14.1853 17.6494 14.9644 17.2942 15.649C16.939 16.3336 16.377 16.8887 15.6881 17.2355C14.9992 17.5822 14.2185 17.7029 13.4571 17.5804C12.6956 17.4578 11.9922 17.0983 11.4469 16.553C10.9015 16.0076 10.542 15.3042 10.4195 14.5428C10.297 13.7813 10.4176 13.0007 10.7644 12.3118C11.1111 11.6229 11.6663 11.0608 12.3508 10.7056C13.0354 10.3504 13.8145 10.2201 14.5774 10.3333C15.3556 10.4486 16.076 10.8113 16.6323 11.3675C17.1886 11.9238 17.5512 12.6442 17.6666 13.4224Z" stroke="#000319" stroke-width="1.5" stroke-linecap="round" stroke-linejoin="round"/>
</svg>
